# xmcd
#
# Track frame offsets:
#	150
#	19170
#	36213
#	54375
#	74851
#	86600
#	105851
#	126204
#	150027
#	168658
#
# Disc length: 2797 seconds
#
# Revision: 1
# Processed by: cddbd v1.4PL0 Copyright (c) Steve Scherf et al.
# Submitted via: audiograbber 1.82.02
#
DISCID=790aeb0a
DTITLE=Danny Bryant's RedEye Band - Shadows Passed
DYEAR=2003
DGENRE=Blues
TTITLE0=Shadows Passed
TTITLE1=Play To Win (Born To Lose)
TTITLE2=Sleep Alone
TTITLE3=Movin' On Back To You
TTITLE4=For The Love Of Angels
TTITLE5=One Look
TTITLE6=Going Back Home
TTITLE7=Where The River Ends
TTITLE8=Living With The Blues
TTITLE9=Danny's Blues
EXTD=
EXTT0=
EXTT1=
EXTT2=
EXTT3=
EXTT4=
EXTT5=
EXTT6=
EXTT7=
EXTT8=
EXTT9=
PLAYORDER=
